<svg width="62" height="80" viewBox="0 0 62 80" fill="none" xmlns="http://www.w3.org/2000/svg">
<path d="M29.624 23.2H40.376C43.8747 23.2 46.4987 24.1387 48.248 26.016C49.9973 27.8933 50.872 30.6453 50.872 34.272V56.928C50.872 60.5547 49.9973 63.3067 48.248 65.184C46.4987 67.0613 43.8747 68 40.376 68H29.624V23.2ZM40.248 61.6C41.4 61.6 42.2747 61.2587 42.872 60.576C43.512 59.8933 43.832 58.784 43.832 57.248V33.952C43.832 32.416 43.512 31.3067 42.872 30.624C42.2747 29.9413 41.4 29.6 40.248 29.6H36.664V61.6H40.248Z" fill="white"/>
<path d="M32.376 56.8H21.624C18.1253 56.8 15.5013 55.8613 13.752 53.984C12.0027 52.1067 11.128 49.3547 11.128 45.728L11.128 23.072C11.128 19.4453 12.0027 16.6933 13.752 14.816C15.5013 12.9387 18.1253 12 21.624 12H32.376L32.376 56.8ZM21.752 18.4C20.6 18.4 19.7253 18.7413 19.128 19.424C18.488 20.1067 18.168 21.216 18.168 22.752L18.168 46.048C18.168 47.584 18.488 48.6933 19.128 49.376C19.7253 50.0587 20.6 50.4 21.752 50.4H25.336L25.336 18.4H21.752Z" fill="#FF0000"/>
</svg>